<?xml version="1.0" encoding="UTF-8"?>
<svg version="1.1" xmlns="http://www.w3.org/2000/svg" width="512" height="512">
<path d="M0 0 C168.96 0 337.92 0 512 0 C512 168.96 512 337.92 512 512 C343.04 512 174.08 512 0 512 C0 343.04 0 174.08 0 0 Z " fill="#E9E1D5" transform="translate(0,0)"/>
<path d="M0 0 C2.35337029 2.11482897 4.65562263 4.27441854 6.95703125 6.4453125 C8.18017556 7.47335403 9.40887408 8.4948452 10.64453125 9.5078125 C38.3418174 33.28506511 55.21802435 73.64973197 57.95703125 109.4453125 C58.73666863 125.29341968 58.63802883 140.96253551 54.95703125 156.4453125 C54.77479004 157.23083496 54.59254883 158.01635742 54.40478516 158.82568359 C48.21003344 185.05893042 36.64149095 209.5577119 17.984375 229.296875 C16.14766619 231.24329089 14.46335976 233.25054699 12.76953125 235.3203125 C2.95428471 246.48319014 -9.35122526 254.8992589 -22.04296875 262.4453125 C-22.7272998 262.85410645 -23.41163086 263.26290039 -24.11669922 263.68408203 C-38.32129552 272.02796963 -53.5878556 277.14778011 -69.60546875 280.8203125 C-70.282146 280.97604736 -70.95882324 281.13178223 -71.65600586 281.29223633 C-112.57582707 289.94997251 -155.7424713 279.89289965 -190.41796875 257.4453125 C-196.23308209 253.42860615 -201.69680706 249.06415626 -207.04296875 244.4453125 C-208.03425781 243.589375 -209.02554688 242.7334375 -210.046875 241.8515625 C-221.13638723 232.08379114 -229.94563366 220.75576778 -238.04296875 208.4453125 C-238.84154297 207.23488281 -238.84154297 207.23488281 -239.65625 206 C-249.46434983 190.4022132 -255.41394481 173.54227311 -259.29296875 155.6328125 C-259.45635742 154.88080566 -259.61974609 154.12879883 -259.78808594 153.35400391 C-267.32065788 116.50222072 -260.44862771 77.90550184 -242.04296875 45.4453125 C-241.61242187 44.61644531 -241.181875 43.78757812 -240.73828125 42.93359375 C-222.57669364 8.05082031 -186.37635235 -18.21065907 -149.5078125 -30.0546875 C-145.05985897 -31.40384823 -140.57712988 -32.53546417 -136.04296875 -33.5546875 C-135.3173877 -33.71839844 -134.59180664 -33.88210937 -133.84423828 -34.05078125 C-86.92500574 -44.11455637 -36.49354714 -30.6377148 0 0 Z " fill="#E9E1D4" transform="translate(358.04296875,132.5546875)"/>
<path d="M0 0 C0.495 8.415 0.495 8.415 1 17 C6.28 16.67 11.56 16.34 17 16 C17 52.3 17 88.6 17 126 C8.09 127.98 8.09 127.98 -1 130 C-4.97055825 131.09490409 -8.88842122 132.20601471 -12.8125 133.4375 C-14.27284668 133.88971924 -14.27284668 133.88971924 -15.76269531 134.35107422 C-30.98325048 139.12430934 -45.24669942 145.63762927 -59.625 152.5 C-60.59695313 152.96019531 -61.56890625 153.42039062 -62.5703125 153.89453125 C-67.93501036 156.45429972 -73.13816836 159.13611564 -78.23583984 162.19726562 C-78.8180127 162.46216797 -79.40018555 162.72707031 -80 163 C-80.66 162.67 -81.32 162.34 -82 162 C-82.1032181 146.26565809 -82.14889259 130.53225394 -82.12697029 114.79764748 C-82.11811653 107.49087532 -82.1277492 100.18501903 -82.18164062 92.87841797 C-82.22859211 86.50626531 -82.24010504 80.13517638 -82.2099179 73.76290548 C-82.1951621 70.39157351 -82.19757051 67.02231188 -82.24249649 63.65120316 C-82.48567997 41.46273596 -82.48567997 41.46273596 -78.81230164 36.16790771 C-76.32562357 33.63959008 -74.02600158 31.82144842 -71 30 C-69.86738635 29.073291 -68.74225667 28.13726529 -67.62890625 27.1875 C-48.72937673 13.70503308 -23.89595206 0 0 0 Z " fill="#DAAD76" transform="translate(337,185)"/>
<path d="M0 0 C2.35337029 2.11482897 4.65562263 4.27441854 6.95703125 6.4453125 C8.18017556 7.47335403 9.40887408 8.4948452 10.64453125 9.5078125 C38.3418174 33.28506511 55.21802435 73.64973197 57.95703125 109.4453125 C58.73666863 125.29341968 58.63802883 140.96253551 54.95703125 156.4453125 C54.77479004 157.23083496 54.59254883 158.01635742 54.40478516 158.82568359 C48.21003344 185.05893042 36.64149095 209.5577119 17.984375 229.296875 C16.14766619 231.24329089 14.46335976 233.25054699 12.76953125 235.3203125 C2.95428471 246.48319014 -9.35122526 254.8992589 -22.04296875 262.4453125 C-22.7272998 262.85410645 -23.41163086 263.26290039 -24.11669922 263.68408203 C-38.32129552 272.02796963 -53.5878556 277.14778011 -69.60546875 280.8203125 C-70.282146 280.97604736 -70.95882324 281.13178223 -71.65600586 281.29223633 C-112.57582707 289.94997251 -155.7424713 279.89289965 -190.41796875 257.4453125 C-196.23308209 253.42860615 -201.69680706 249.06415626 -207.04296875 244.4453125 C-208.03425781 243.589375 -209.02554688 242.7334375 -210.046875 241.8515625 C-221.13638723 232.08379114 -229.94563366 220.75576778 -238.04296875 208.4453125 C-238.84154297 207.23488281 -238.84154297 207.23488281 -239.65625 206 C-249.46434983 190.4022132 -255.41394481 173.54227311 -259.29296875 155.6328125 C-259.45635742 154.88080566 -259.61974609 154.12879883 -259.78808594 153.35400391 C-267.32065788 116.50222072 -260.44862771 77.90550184 -242.04296875 45.4453125 C-241.61242187 44.61644531 -241.181875 43.78757812 -240.73828125 42.93359375 C-222.57669364 8.05082031 -186.37635235 -18.21065907 -149.5078125 -30.0546875 C-145.05985897 -31.40384823 -140.57712988 -32.53546417 -136.04296875 -33.5546875 C-135.3173877 -33.71839844 -134.59180664 -33.88210937 -133.84423828 -34.05078125 C-86.92500574 -44.11455637 -36.49354714 -30.6377148 0 0 Z M-176.04296875 -7.5546875 C-176.68911133 -7.18230957 -177.33525391 -6.80993164 -178.00097656 -6.42626953 C-186.88128235 -1.25685642 -194.61444499 4.29888458 -202.04296875 11.4453125 C-203.39160774 12.59764676 -204.74556533 13.74379359 -206.10546875 14.8828125 C-232.02316589 37.632214 -249.24486346 74.03629459 -251.9140625 108.29101562 C-254.60087068 153.19327965 -241.78890832 192.28244888 -212.12744141 225.95092773 C-206.59297701 232.11892484 -200.66436429 237.43953747 -194.04296875 242.4453125 C-193.51864258 242.84991699 -192.99431641 243.25452148 -192.45410156 243.67138672 C-177.95837423 254.80646846 -162.24093872 261.51997732 -145.04296875 267.4453125 C-144.30320801 267.71110107 -143.56344727 267.97688965 -142.80126953 268.25073242 C-128.99966025 273.09374442 -114.43163094 273.71806171 -99.91796875 273.7578125 C-98.10570801 273.76590942 -98.10570801 273.76590942 -96.25683594 273.77416992 C-88.96193233 273.71621787 -82.16904109 272.96528401 -75.04296875 271.4453125 C-73.70921537 271.20341842 -72.3746498 270.96592928 -71.0390625 270.734375 C-64.63342035 269.53903014 -58.64415684 268.21686064 -52.671875 265.58984375 C-50.70546618 264.73374006 -48.70680022 263.95107046 -46.6953125 263.20703125 C-30.77636228 257.26462607 -16.93510913 248.4554168 -4.04296875 237.4453125 C-3.50800781 236.9901123 -2.97304688 236.53491211 -2.421875 236.06591797 C4.83972107 229.81854849 11.17433144 223.10458508 16.95703125 215.4453125 C17.36163574 214.91566895 17.76624023 214.38602539 18.18310547 213.84033203 C29.88515255 198.43106203 36.54358724 182.98385604 42.23608398 164.52392578 C42.95703125 162.4453125 42.95703125 162.4453125 43.95703125 161.4453125 C44.24031624 160.07078705 44.47053309 158.68519909 44.67578125 157.296875 C44.80339844 156.45640625 44.93101562 155.6159375 45.0625 154.75 C45.19269531 153.86570312 45.32289063 152.98140625 45.45703125 152.0703125 C45.71507631 150.33297943 45.97540024 148.59598291 46.23828125 146.859375 C46.4094043 145.69849365 46.4094043 145.69849365 46.58398438 144.51416016 C46.95703125 142.4453125 46.95703125 142.4453125 47.95703125 139.4453125 C49.64772001 108.04717294 45.40416711 79.23601419 29.95703125 51.4453125 C29.39242188 50.39214844 28.8278125 49.33898437 28.24609375 48.25390625 C9.10962735 13.79928248 -22.48505626 -7.90681957 -59.04296875 -20.5546875 C-59.81970947 -20.82845215 -60.5964502 -21.1022168 -61.39672852 -21.38427734 C-97.80314271 -33.95666138 -143.34574811 -26.51590867 -176.04296875 -7.5546875 Z " fill="#A4855F" transform="translate(358.04296875,132.5546875)"/>
<path d="M0 0 C11.17344057 0.09196247 21.69094267 4.09738535 32 8 C33.04285156 8.36996094 34.08570313 8.73992187 35.16015625 9.12109375 C50.42758754 14.67123266 66.97918903 23.86928218 77 37 C77.52494206 37.44101705 78.04988413 37.88203409 78.59073353 38.33641529 C80.51696846 40.61026133 80.36987764 42.03635248 80.36076355 44.99235535 C80.36488754 46.02300613 80.36901154 47.05365692 80.3732605 48.11553955 C80.36247467 49.24554382 80.35168884 50.3755481 80.34057617 51.53979492 C80.34123329 53.32535545 80.34123329 53.32535545 80.34190369 55.14698792 C80.34017059 58.41132283 80.32511547 61.67527296 80.30418181 64.93953109 C80.28544 68.35080913 80.28366655 71.76209456 80.28010559 75.17341614 C80.27077775 81.63326172 80.24615409 88.09295516 80.21605712 94.55273372 C80.182536 101.9069345 80.16603288 109.26114252 80.15097082 116.61540067 C80.1196051 131.74368525 80.06683035 146.87182742 80 162 C76.88958101 158.91656029 73.9023481 155.78387532 71.00683594 152.49731445 C58.09533285 137.99478943 41.97516065 127.14298889 24.5625 118.6875 C23.95623779 118.38626221 23.34997559 118.08502441 22.7253418 117.7746582 C17.70573981 115.43979538 12.50375017 113.91518637 7.19897461 112.38208008 C6.40988457 112.15211586 5.62079453 111.92215164 4.80779266 111.68521881 C2.87243588 111.12150444 0.93629529 110.56048222 -1 110 C-1.15462243 98.00306255 -1.30279087 86.0060638 -1.4429636 74.00894833 C-1.50826511 68.43682969 -1.57569998 62.86475469 -1.64819336 57.29272461 C-1.71821221 51.90462526 -1.78238814 46.51648377 -1.84269524 41.12826729 C-1.86657172 39.08360884 -1.89247173 37.03897288 -1.92053413 34.9943676 C-2.24528378 11.1145012 -2.24528378 11.1145012 -1 1 C-0.67 0.67 -0.34 0.34 0 0 Z " fill="#ECE2CD" transform="translate(176,185)"/>
<path d="M0 0 C0 36.3 0 72.6 0 110 C-5.94 111.32 -11.88 112.64 -18 114 C-21.97055825 115.09490409 -25.88842122 116.20601471 -29.8125 117.4375 C-31.27284668 117.88971924 -31.27284668 117.88971924 -32.76269531 118.35107422 C-48.0284435 123.13848208 -62.33023314 129.67730006 -76.75 136.5625 C-77.73871094 137.03107422 -78.72742188 137.49964844 -79.74609375 137.98242188 C-83.93630428 139.98242223 -88.0735177 141.98656754 -92.078125 144.33984375 C-95 146 -95 146 -97 146 C-87.0994312 124.43027415 -57.97165571 107.44812283 -36.7265625 99.33984375 C-35.21552333 98.78364894 -33.70249539 98.2328265 -32.1875 97.6875 C-31.48181885 97.43258789 -30.7761377 97.17767578 -30.04907227 96.91503906 C-29.36643311 96.67881836 -28.68379395 96.44259766 -27.98046875 96.19921875 C-27.38129639 95.99127686 -26.78212402 95.78333496 -26.16479492 95.5690918 C-23.16726024 94.78108533 -20.06823157 94.4383188 -17 94 C-17 63.97 -17 33.94 -17 3 C-6 0 -6 0 0 0 Z " fill="#BE7458" transform="translate(354,201)"/>
<path d="M0 0 C5.61 0.66 11.22 1.32 17 2 C17 32.36 17 62.72 17 94 C19.64 94.33 22.28 94.66 25 95 C51.63146976 102.04276261 77.9247692 120.55012329 95 142 C96.265625 144.3125 96.265625 144.3125 97 146 C93.45805 144.63749696 90.09383143 143.08880721 86.71875 141.35546875 C85.71803467 140.8457251 84.71731934 140.33598145 83.6862793 139.81079102 C82.63480713 139.27510498 81.58333496 138.73941895 80.5 138.1875 C73.00919385 134.40211241 65.63057628 130.8274192 57.72265625 128.00390625 C54.93806618 126.97716357 52.30401214 125.77516298 49.625 124.5 C35.84806303 118.18229033 21.21348408 114.96952554 6.51098633 111.58496094 C4.33553059 111.07816542 2.16701461 110.54175365 0 110 C0 73.7 0 37.4 0 0 Z " fill="#BE765A" transform="translate(158,201)"/>
<path d="M0 0 C4.95041231 2.7617101 8.68495211 6.74855224 10.49609375 12.1484375 C11.31989073 19.1507118 11.75335098 25.25614669 7.49609375 31.1484375 C3.54890559 35.51111915 0.13071951 38.80639837 -5.84375 39.58203125 C-17.94315651 39.5951685 -17.94315651 39.5951685 -22.50390625 35.1484375 C-28.68496735 28.55628445 -29.93416324 24.92204574 -29.83984375 15.70703125 C-29.27543355 9.7282209 -27.05923646 6.65450833 -22.8828125 2.55859375 C-16.48957743 -2.40475648 -7.48200508 -2.54458207 0 0 Z " fill="#C5903B" transform="translate(265.50390625,165.8515625)"/>
<path d="M0 0 C0 1.65 0 3.3 0 5 C-4.39430486 7.23087496 -8.80678985 9.38805537 -13.28515625 11.4453125 C-23.82934988 16.31814553 -33.76785837 21.34790089 -43.234375 28.1015625 C-46 30 -46 30 -49 31 C-49.97897777 26.820518 -49.97897777 26.820518 -49 24 C-45.581749 20.91252126 -41.63482499 18.79709702 -37.625 16.5625 C-36.49497559 15.90942871 -35.36495117 15.25635742 -34.20068359 14.58349609 C-8.5570989 0 -8.5570989 0 0 0 Z " fill="#E9E0D2" transform="translate(325,272)"/>
<path d="M0 0 C4.74164341 0.59542842 8.84396782 1.95196797 13.1875 3.875 C13.86876953 4.1745459 14.55003906 4.4740918 15.25195312 4.78271484 C23.42532966 8.49168846 31.15369802 13.02822157 38.81835938 17.68383789 C40.30701648 18.58192993 41.80917376 19.45792498 43.32226562 20.31420898 C44.41571289 20.94951538 44.41571289 20.94951538 45.53125 21.59765625 C46.18673828 21.96898682 46.84222656 22.34031738 47.51757812 22.72290039 C49 24 49 24 49.5 27.8125 C49.2525 29.3903125 49.2525 29.3903125 49 31 C45.09080247 29.14387721 41.46608623 27.0613469 37.84912109 24.68774414 C28.40135001 18.50868466 18.45375486 13.72026954 8.20605469 9.02392578 C5.43956651 7.73987848 2.7170188 6.38523418 0 5 C0 3.35 0 1.7 0 0 Z " fill="#F4F3EB" transform="translate(187,272)"/>
<path d="M0 0 C0 1.98 0 3.96 0 6 C-0.59723877 6.24532471 -1.19447754 6.49064941 -1.80981445 6.7434082 C-15.11857275 12.25447352 -27.70939344 18.30197258 -40.01171875 25.79980469 C-42.97652578 27.58946473 -45.98600835 29.29471525 -49 31 C-49.55859375 27.87109375 -49.55859375 27.87109375 -49 24 C-46.38051353 21.42525011 -43.27388188 19.80711272 -40.0625 18.0625 C-39.15894775 17.54816406 -38.25539551 17.03382813 -37.32446289 16.50390625 C-7.90367126 0 -7.90367126 0 0 0 Z " fill="#E9E0D1" transform="translate(325,234)"/>
<path d="M0 0 C16.54988867 5.14066005 36.48341005 12.48341005 49 25 C49.04080783 26.99958364 49.04254356 29.00045254 49 31 C44.67541838 28.6411373 40.38795052 26.24851088 36.1796875 23.6875 C26.72184984 17.95692177 17.2241691 13.19881454 7 9 C4.66346987 8.00728616 2.33170902 7.00401352 0 6 C0 4.02 0 2.04 0 0 Z " fill="#F4F3EB" transform="translate(187,234)"/>
<path d="M0 0 C0 1.98 0 3.96 0 6 C-0.88816406 6.29390625 -1.77632813 6.5878125 -2.69140625 6.890625 C-11.4695738 9.92638354 -19.70327342 13.70249516 -27.9375 18 C-28.895354 18.49790039 -29.85320801 18.99580078 -30.84008789 19.50878906 C-36.21795511 22.36042661 -41.32193689 25.42558556 -46.32250977 28.8984375 C-48 30 -48 30 -49 30 C-49.5390625 26.84375 -49.5390625 26.84375 -49 23 C-46.47037703 20.56724269 -43.47848739 19.0978409 -40.375 17.5 C-39.5092334 17.02933105 -38.6434668 16.55866211 -37.75146484 16.07373047 C-35.18154795 14.68737168 -32.59422966 13.34018109 -30 12 C-28.69235499 11.30535225 -27.38502377 10.61011321 -26.078125 9.9140625 C-6.94268559 0 -6.94268559 0 0 0 Z " fill="#E9E0D1" transform="translate(325,216)"/>
<path d="M0 0 C0 1.98 0 3.96 0 6 C-0.55236328 6.22550537 -1.10472656 6.45101074 -1.67382812 6.68334961 C-17.0745662 13.01366541 -31.78707064 19.77474263 -45.1796875 29.78515625 C-47 31 -47 31 -49 31 C-49.5 28.375 -49.5 28.375 -49 25 C-44.3799704 20.48986431 -38.37840904 17.27488812 -32.75 14.1875 C-31.99001709 13.76807129 -31.23003418 13.34864258 -30.44702148 12.91650391 C-24.43079986 9.65514603 -18.29438711 6.6999936 -12.0625 3.875 C-10.77520996 3.28948364 -10.77520996 3.28948364 -9.46191406 2.69213867 C-3.38427191 0 -3.38427191 0 0 0 Z " fill="#E9E0D1" transform="translate(325,253)"/>
<path d="M0 0 C7.13009343 1.92011747 13.67451103 4.46605037 20.3125 7.6875 C21.22386719 8.12594238 22.13523438 8.56438477 23.07421875 9.01611328 C30.34396532 12.5673227 37.33419722 16.4022023 44 21 C45.40765625 21.91652344 45.40765625 21.91652344 46.84375 22.8515625 C49 25 49 25 49.3125 28.25 C49.209375 29.1575 49.10625 30.065 49 31 C43.1521481 27.90614649 37.45339553 24.68448063 31.875 21.125 C21.84084558 14.87912849 11.0942355 10.0376557 0 6 C0 4.02 0 2.04 0 0 Z " fill="#F4F3EB" transform="translate(187,253)"/>
<path d="M0 0 C5.27350252 0.59794044 9.53849304 2.32301964 14.3125 4.5 C15.09286621 4.85239746 15.87323242 5.20479492 16.67724609 5.56787109 C45.03017127 18.54989616 45.03017127 18.54989616 49 24 C49.18359375 27.17578125 49.18359375 27.17578125 49 30 C43.02530565 26.780981 37.10999864 23.48639442 31.25 20.0625 C24.04643212 15.89259088 16.59141412 12.39978297 9 9 C8.02804688 8.56300781 7.05609375 8.12601563 6.0546875 7.67578125 C4.04002962 6.77581652 2.02071587 5.88627889 0 5 C0 3.35 0 1.7 0 0 Z " fill="#F4F3EB" transform="translate(187,216)"/>
</svg>
